<svg viewBox="0 0 622.39 107.29" xmlns="http://www.w3.org/2000/svg"><g fill="#256cfa"><path d="m217.22 24.84h-6.27c-1.99 0-3.6 1.62-3.6 3.6l-.02.02c0 1.05-1.23 1.6-2.02.9-1.22-1.08-2.56-2.03-4.04-2.85-3.48-1.91-7.45-2.88-11.94-2.88-5.31 0-10.11 1.37-14.39 4.1-4.29 2.74-7.68 6.41-10.17 11.02-2.49 4.62-3.74 9.83-3.74 15.62s1.24 10.88 3.74 15.5c2.49 4.62 5.88 8.27 10.17 10.96 4.28 2.69 9.08 4.05 14.39 4.05 4.49 0 8.49-.96 12-2.88 1.42-.77 2.7-1.66 3.87-2.67.84-.73 2.13-.15 2.13.96 0 1.86 1.51 3.37 3.37 3.37h6.75c1.86 0 3.37-1.51 3.37-3.37v-51.85c0-1.99-1.62-3.6-3.6-3.6zm-13.63 42.28c-3.07 3.35-7.09 5.03-12.07 5.03-3.27 0-6.14-.75-8.64-2.27-2.5-1.51-4.46-3.61-5.88-6.31-1.43-2.69-2.14-5.8-2.14-9.31s.72-6.61 2.14-9.31c1.42-2.69 3.38-4.8 5.88-6.31 2.49-1.51 5.37-2.27 8.64-2.27s6.27.75 8.76 2.27c2.5 1.52 4.43 3.61 5.82 6.31 1.39 2.69 2.08 5.8 2.08 9.31 0 5.23-1.53 9.52-4.59 12.86z"/><path d="m137.69 9.7c2.09-3.83-.68-8.49-5.04-8.49h-35.91c-2.1 0-4.03 1.15-5.04 2.99l-4.78 8.75-.2.37c-.15-.13-.3-.25-.45-.36-.16-.13-.32-.26-.49-.39-.35-.28-.71-.55-1.07-.82-.17-.13-.34-.26-.51-.38-.18-.13-.35-.26-.53-.38-1.35-.96-2.74-1.85-4.18-2.68-.2-.12-.41-.23-.61-.34-.19-.11-.39-.22-.59-.32-.3-.17-.6-.33-.91-.48-.02 0-.03-.02-.04-.02-.24-.13-.49-.25-.73-.37-.19-.1-.38-.19-.58-.28-.28-.13-.55-.27-.83-.39-.62-.29-1.24-.56-1.88-.82-6.37-2.64-13.35-4.08-20.69-4.02-28.91.18-52.49 23.83-52.63 52.74-.11 23.76 15.4 43.91 36.86 50.77 3.86 1.23 7.91 2.04 12.09 2.35 1.34.1 2.7.15 4.07.15 7.17 0 14.01-1.42 20.25-4.01s.01 0 .02 0c4.89-2.03 9.42-4.76 13.44-8.08l.18.32 4.78 8.75c1.01 1.84 2.94 2.99 5.04 2.99h35.91c4.36 0 7.13-4.66 5.04-8.49l-1.78-3.26-22.51-41.26 22.52-41.29 1.78-3.26zm-17.02 82.41c.83 1.53-.27 3.4-2.02 3.4h-16.32c-1.26 0-2.42-.69-3.02-1.79l-4.04-7.4s0-.01.01-.02l-6.37-11.67s-16.78-30.72-16.78-30.72c-3.69-6.78-10.87-11.39-19.13-11.39-.15 0-.3 0-.45 0-11.81.24-21.31 9.89-21.31 21.75s9.74 21.76 21.76 21.76c7.51 0 14.14-3.81 18.05-9.6l9.91 18.17c-6.83 6.3-15.78 10.33-25.65 10.87-.76.04-1.52.06-2.29.06-3.59 0-7.08-.46-10.4-1.33-17.74-4.62-30.88-20.78-30.88-39.95 0-22.76 18.51-41.28 41.28-41.28 10.76 0 20.58 4.14 27.93 10.92h.01c3.13 2.88 5.81 6.24 7.93 9.96v.01l.14.25c.17.3.33.59.49.89s10.49 19.23 10.49 19.23v.02s5.17 9.46 5.17 9.46l1.52 2.79 13.96 25.6zm.01-75.75-13.98 25.63-6.3-11.55-.03-.06c-.14-.28-.28-.55-.43-.83l-.64-1.18c-.23-.41-.47-.83-.71-1.23-.13-.22-.26-.43-.39-.65-.02-.03-.03-.05-.05-.08-.16-.26-.32-.51-.49-.77-.42-.66-.85-1.3-1.3-1.94-.17-.25-.36-.5-.53-.75-.18-.25-.37-.5-.56-.75l4.06-7.45c.6-1.11 1.76-1.8 3.02-1.8h16.32c1.74 0 2.85 1.87 2.02 3.4z"/><path d="m524.96 38.91v-.02c2.57-1.51 5.53-2.27 8.88-2.27 2.86 0 5.49.51 7.9 1.53 1.43.6 2.72 1.39 3.9 2.34 1.42 1.15 3.5 1.02 4.79-.29l3.84-3.89c1.43-1.45 1.39-3.82-.13-5.19-2.21-2-4.71-3.61-7.5-4.85-3.97-1.75-8.23-2.63-12.8-2.63-5.8 0-11.04 1.34-15.74 4.05-4.7 2.69-8.39 6.35-11.09 10.96-2.7 4.62-4.05 9.82-4.05 15.62s1.35 10.91 4.05 15.56 6.39 8.33 11.09 11.02c4.69 2.69 9.94 4.05 15.74 4.05 4.57 0 8.84-.88 12.8-2.63 2.79-1.24 5.3-2.86 7.5-4.85 1.51-1.37 1.56-3.74.13-5.19l-3.84-3.89c-1.29-1.31-3.37-1.45-4.79-.29-1.18.96-2.49 1.74-3.9 2.34-2.41 1.03-5.04 1.53-7.9 1.53-3.35 0-6.31-.75-8.88-2.27-2.57-1.51-4.57-3.59-6-6.24s-2.14-5.7-2.14-9.13.72-6.57 2.14-9.18 3.43-4.67 6-6.19z"/><path d="m618.29 38.62v.02c-2.74-4.61-6.43-8.27-11.09-10.96s-9.88-4.05-15.68-4.05-10.9 1.37-15.55 4.1c-4.65 2.74-8.35 6.39-11.09 10.96s-4.1 9.72-4.1 15.43 1.37 10.91 4.1 15.56 6.43 8.35 11.09 11.09 9.84 4.1 15.55 4.1 11.02-1.37 15.68-4.1c4.65-2.73 8.35-6.43 11.09-11.09 2.73-4.65 4.1-9.84 4.1-15.56s-1.37-10.88-4.1-15.5zm-11.88 24.7h.01c-1.43 2.69-3.43 4.8-6.01 6.31-2.57 1.52-5.53 2.27-8.88 2.27s-6.19-.75-8.76-2.27c-2.57-1.51-4.57-3.61-6-6.31-1.43-2.69-2.14-5.75-2.14-9.18s.72-6.45 2.14-9.06 3.43-4.67 6-6.19c2.57-1.51 5.49-2.27 8.76-2.27s6.29.75 8.82 2.27 4.54 3.57 6 6.19c1.47 2.61 2.2 5.63 2.2 9.06s-.72 6.5-2.14 9.18z"/><path d="m490.08 0h-6.27c-1.99 0-3.6 1.62-3.6 3.6v27.81h-.02c-1.7-1.96-3.71-3.59-6.06-4.9-3.48-1.91-7.45-2.88-11.94-2.88-5.31 0-10.11 1.37-14.39 4.1-4.29 2.74-7.68 6.41-10.17 11.02-2.5 4.62-3.74 9.82-3.74 15.62s1.24 10.88 3.74 15.5c2.49 4.62 5.88 8.27 10.17 10.96 4.28 2.69 9.08 4.05 14.39 4.05 4.49 0 8.49-.96 12-2.88 1.42-.77 2.7-1.66 3.87-2.67.84-.73 2.13-.15 2.13.96 0 1.86 1.51 3.37 3.37 3.37h6.75c1.86 0 3.37-1.51 3.37-3.37v-76.69c0-1.99-1.62-3.6-3.6-3.6zm-11.11 63.56c-1.39 2.69-3.33 4.8-5.82 6.31-2.5 1.52-5.41 2.27-8.76 2.27s-6.14-.75-8.64-2.27c-2.49-1.51-4.46-3.61-5.88-6.31-1.43-2.69-2.14-5.8-2.14-9.31s.72-6.61 2.14-9.31c1.42-2.69 3.39-4.8 5.88-6.31s5.37-2.27 8.64-2.27 6.27.75 8.76 2.27 4.43 3.61 5.82 6.31c1.39 2.69 2.08 5.8 2.08 9.31s-.7 6.61-2.08 9.31z"/><path d="m311.59 24.86h-6.13c-1.51 0-2.85.93-3.38 2.34l-11.74 31.52c-.42 1.13-2.01 1.12-2.41 0l-11.42-31.48c-.52-1.42-1.87-2.37-3.38-2.37h-2.8c-1.52 0-2.87.95-3.38 2.37l-11.42 31.48c-.41 1.13-2 1.13-2.41 0l-11.74-31.52c-.53-1.41-1.87-2.34-3.38-2.34h-6.13c-2.55 0-4.29 2.58-3.34 4.94l20.74 51.59c.54 1.36 1.87 2.26 3.34 2.26h2.95c1.48 0 2.81-.91 3.36-2.29l11.62-29.69c.43-1.09 1.97-1.09 2.39 0l11.62 29.69c.54 1.38 1.87 2.29 3.36 2.29h2.95c1.47 0 2.79-.89 3.34-2.26l20.74-51.59c.95-2.37-.79-4.94-3.34-4.94z"/><path d="m374.8 24.84h-6.75c-1.86 0-3.37 1.51-3.37 3.37v.08h.01c0 1.13-1.31 1.7-2.14.96-1.19-1.03-2.49-1.95-3.92-2.74-3.48-1.91-7.45-2.88-11.94-2.88-5.31 0-10.11 1.37-14.39 4.1-4.29 2.74-7.68 6.41-10.17 11.02-2.49 4.62-3.74 9.82-3.74 15.62s1.24 10.88 3.74 15.5c2.49 4.62 5.88 8.27 10.17 10.96 4.28 2.69 9.08 4.05 14.39 4.05 4.49 0 8.49-.96 12-2.88 1.41-.77 2.7-1.66 3.86-2.67.84-.73 2.13-.15 2.13.96 0 1.86 1.51 3.37 3.37 3.37h6.75c1.86 0 3.37-1.51 3.37-3.37v-52.08c0-1.86-1.51-3.37-3.37-3.37zm-13.85 42.28c-3.07 3.35-7.09 5.03-12.07 5.03-3.27 0-6.14-.75-8.64-2.27-2.49-1.51-4.45-3.61-5.88-6.31-1.43-2.69-2.14-5.8-2.14-9.31s.72-6.61 2.14-9.31c1.43-2.69 3.39-4.8 5.88-6.31s5.37-2.27 8.64-2.27 6.27.75 8.76 2.27 4.43 3.61 5.82 6.31c1.39 2.69 2.08 5.8 2.08 9.31 0 5.23-1.53 9.52-4.59 12.86z"/><path d="m428.01 25.22c-2.38-1.05-5.03-1.59-7.97-1.59-5.83 0-10.61 1.87-13.93 5.4-.49.53-1.38.15-1.38-.57h-.02c0-1.98-1.61-3.6-3.6-3.6h-6.27c-1.99 0-3.6 1.61-3.6 3.6v51.6c0 1.98 1.61 3.6 3.6 3.6h6.27c1.99 0 3.6-1.61 3.6-3.6v-29.11c0-5.06 1.23-8.78 3.68-11.15s5.55-3.56 9.31-3.56c1.73 0 3.23.24 4.54.73.46.18.9.39 1.33.64 1.47.87 3.32.69 4.51-.53l4.05-4.16c1.47-1.51 1.33-3.97-.29-5.3-1.23-1-2.51-1.8-3.83-2.4z"/></g></svg>